<?xml version="1.0" encoding="utf-8" ?>
<svg xmlns="http://www.w3.org/2000/svg" xmlns:xlink="http://www.w3.org/1999/xlink" width="1024" height="1024">
	<path fill="#FEFEFE" d="M0 0L1024 0L1024 1024L0 1024L0 0Z"/>
	<path fill="#2D3151" d="M416.337 291.405C449.254 276.392 466.834 252.863 494.305 230.941Q497.425 228.426 500.624 226.014Q503.824 223.602 507.101 221.296Q510.378 218.99 513.729 216.791Q517.079 214.593 520.499 212.505Q523.919 210.418 527.406 208.443Q530.893 206.467 534.442 204.607Q537.991 202.747 541.599 201.003Q545.207 199.26 548.87 197.635Q552.532 196.01 556.246 194.505Q559.96 193.001 563.721 191.618Q567.482 190.235 571.286 188.976Q575.09 187.717 578.933 186.582Q582.777 185.448 586.655 184.439Q590.533 183.43 594.442 182.549Q598.351 181.667 602.286 180.914Q606.222 180.16 610.18 179.535Q614.138 178.91 618.115 178.415Q622.091 177.92 626.082 177.554Q630.072 177.189 634.072 176.954Q638.072 176.718 642.078 176.614Q646.084 176.509 650.091 176.536Q654.098 176.562 658.102 176.719Q662.106 176.876 666.103 177.163Q670.1 177.45 674.085 177.868Q678.07 178.286 682.04 178.833Q686.009 179.38 689.959 180.057Q693.909 180.733 697.834 181.538Q701.759 182.343 705.656 183.276Q709.554 184.209 713.418 185.268Q717.283 186.327 721.111 187.512Q724.939 188.696 728.726 190.005Q732.513 191.314 736.256 192.746C792.181 213.695 840.538 259.688 864.963 313.994C872.307 330.323 878.92 346.914 882.961 364.394C894.453 414.107 886.047 468.587 868.142 515.717C865.542 522.561 859.904 539.289 855.382 544.319C854.712 562.503 855.047 580.83 855.352 599.025C855.552 599.15 855.75 599.278 855.952 599.402C858.942 601.232 862.776 602.389 866.01 603.794C869.7 605.397 873.101 607.423 876.498 609.568C902.725 626.133 923.268 654.356 930.996 684.457C939.222 716.498 934.481 752.339 917.574 780.817C913.333 787.96 908.053 795.853 901.735 801.341C898.735 804.449 895.33 807.128 892.003 809.874C878.524 819.683 864.349 828.157 848.865 834.381C857.692 834.44 866.904 833.864 875.671 834.606C881.662 834.613 903.381 832.932 907.406 836.793C908.413 837.759 908.888 839.076 908.902 840.456C908.92 842.329 908.379 844.264 907.005 845.59C903.697 848.781 897.237 847.716 892.976 847.643C851.553 846.93 810.034 848.057 768.599 847.899L308.188 847.773L179.756 847.805C157.181 847.845 134.3 848.764 111.774 847.657C111.231 847.322 110.696 846.998 110.196 846.6C108.622 845.347 107.416 843.787 107.208 841.732C107.023 839.897 107.515 838.115 108.734 836.719C112.576 832.321 129.23 834.396 135.037 834.505L135.042 799.416C134.079 798.661 133.141 797.873 132.315 796.966C127.387 791.557 124.209 784.539 120.762 778.152C99.8569 739.413 84.2698 683.853 86.1901 639.516C87.3806 612.03 94.5142 582.974 115.585 563.802C137.224 544.115 167.489 537.519 196.057 538.964L196.024 413.776L195.974 377.392C195.967 368.562 195.352 359.3 197.093 350.606C199.107 340.549 204.258 330.92 211.232 323.434C227.168 306.329 243.9 306.841 265.532 306.96C277.674 307.027 289.884 307.223 302.017 306.757C307.244 303.112 312.564 299.596 318.266 296.729C341.099 285.248 370.368 281.197 395.445 285.593C402.611 286.849 409.445 289.139 416.337 291.405Z"/>
	<path fill="#E2E5EF" d="M484.326 352.935L712.05 352.746C742.624 352.92 776.235 351.095 806.509 353.076C808.372 354.549 810.553 356.054 810.876 358.602C811.64 364.612 811.225 371.057 811.217 377.126C811.203 388.616 811.057 400.119 811.203 411.608C811.962 471.074 810.585 530.546 810.997 590.008C821.803 590.161 831.651 592.461 842.095 594.885C846.406 596.166 850.98 598.282 855.352 599.025C855.552 599.15 855.75 599.278 855.952 599.402C858.942 601.232 862.776 602.389 866.01 603.794C869.7 605.397 873.101 607.423 876.498 609.568C902.725 626.133 923.268 654.356 930.996 684.457C939.222 716.498 934.481 752.339 917.574 780.817C913.333 787.96 908.053 795.853 901.735 801.341C898.735 804.449 895.33 807.128 892.003 809.874C878.524 819.683 864.349 828.157 848.865 834.381C857.692 834.44 866.904 833.864 875.671 834.606C862.441 835.262 849.111 834.634 835.868 834.64L757.944 834.978C759.064 834.812 760.089 834.566 761.174 834.243C744.703 830.888 726.582 821.94 715.449 809.193C712.483 807.884 711.364 806.526 709.588 803.804C709.268 799.512 709.308 795.16 709.218 790.856C708.594 791.374 707.975 791.895 707.324 792.381C705.787 793.529 704.277 794.239 702.318 793.891C698.97 793.295 696.962 789.697 695.217 787.106L428.668 786.811L372.394 786.93C364.729 786.951 352.99 787.979 345.862 786.482C346.79 783.595 347.219 780.524 347.78 777.547L347.947 775.766C350.191 759.658 345.89 743.118 337.9 729.16C345.313 725.832 372.503 696.714 379.966 689.29C387.536 681.757 395.305 674.409 402.94 666.939L339.46 666.992C329.762 666.99 319.535 667.607 309.899 666.757C308.561 666.64 307.336 666.294 306.249 665.469C305.262 664.72 304.622 663.616 304.6 662.364C304.575 660.987 305.247 659.759 306.235 658.843C307.621 657.559 309.565 656.917 311.419 656.739C314.45 656.446 317.731 656.847 320.794 656.841L343.392 656.819L412.753 656.992C418.727 651.883 424.148 646.047 429.784 640.564Q442.738 628.194 455.507 615.633C462.56 608.575 469.691 601.086 477.447 594.797C459.178 593.879 440.593 594.459 422.296 594.549C415.875 594.581 409.389 594.923 402.981 594.583C412.424 581.208 420.125 566.608 429.094 552.923C432.316 546.994 436.343 541.393 439.768 535.56C456.091 507.758 473.508 479.815 487.261 450.645C501.707 420.004 500.473 395.454 489.142 363.868L484.326 352.935Z"/>
	<path fill="#F0B872" d="M810.997 590.008C821.803 590.161 831.651 592.461 842.095 594.885C846.406 596.166 850.98 598.282 855.352 599.025C855.552 599.15 855.75 599.278 855.952 599.402C858.942 601.232 862.776 602.389 866.01 603.794C869.7 605.397 873.101 607.423 876.498 609.568C902.725 626.133 923.268 654.356 930.996 684.457C939.222 716.498 934.481 752.339 917.574 780.817C913.333 787.96 908.053 795.853 901.735 801.341C898.735 804.449 895.33 807.128 892.003 809.874C878.524 819.683 864.349 828.157 848.865 834.381C857.692 834.44 866.904 833.864 875.671 834.606C862.441 835.262 849.111 834.634 835.868 834.64L757.944 834.978C759.064 834.812 760.089 834.566 761.174 834.243C744.703 830.888 726.582 821.94 715.449 809.193C712.483 807.884 711.364 806.526 709.588 803.804C709.268 799.512 709.308 795.16 709.218 790.856C708.594 791.374 707.975 791.895 707.324 792.381C705.787 793.529 704.277 794.239 702.318 793.891C698.97 793.295 696.962 789.697 695.217 787.106C693.409 783.541 691.331 779.954 689.093 776.645L688.903 776.162C687.133 771.187 684.552 766.44 682.767 761.416C677.725 747.232 674.41 728.461 675.851 713.548C676.731 693.439 682.466 672.398 692.349 654.852Q693.131 653.488 693.945 652.143Q694.759 650.798 695.606 649.474Q696.452 648.149 697.33 646.845Q698.208 645.541 699.117 644.258Q700.026 642.975 700.966 641.715Q701.905 640.454 702.875 639.217Q703.845 637.979 704.844 636.766Q705.843 635.552 706.87 634.362Q707.898 633.172 708.955 632.008Q710.011 630.844 711.095 629.705Q712.178 628.566 713.289 627.453Q714.4 626.341 715.537 625.256Q716.674 624.17 717.838 623.112Q719 622.055 720.189 621.025Q721.377 619.995 722.589 618.995Q723.802 617.994 725.038 617.023Q726.274 616.051 727.533 615.11Q728.792 614.168 730.073 613.258Q731.355 612.347 732.658 611.467Q733.961 610.587 735.284 609.739Q736.608 608.891 737.951 608.074Q739.295 607.258 740.658 606.474Q742.021 605.691 743.402 604.94Q744.783 604.189 746.182 603.472Q747.581 602.754 748.997 602.071Q750.412 601.387 751.844 600.738Q753.276 600.088 754.723 599.473Q756.17 598.859 757.631 598.279Q759.092 597.699 760.567 597.154Q762.042 596.609 763.529 596.1Q765.016 595.591 766.516 595.118Q768.015 594.645 769.525 594.208C783.442 591.176 796.806 590.049 810.997 590.008Z"/>
	<path fill="#B1BFDE" d="M715.449 809.193C715.577 809.113 715.706 809.035 715.832 808.954C717.398 807.946 718.329 807.013 718.704 805.11C719.375 801.71 719.104 797.826 719.077 794.369C718.947 778.297 715.425 755.989 730.477 745.281C733.51 743.124 737.027 741.526 740.732 741.017C748.622 739.932 757.125 740.482 765.104 740.493L807.193 740.581L849.61 740.597C856.959 740.604 865.658 739.818 872.832 741.255C879.012 742.494 884.123 746.792 887.374 752.083C894.223 763.233 891.821 786.107 891.723 799.126C891.698 802.543 891.338 806.529 892.003 809.874C878.524 819.683 864.349 828.157 848.865 834.381C857.692 834.44 866.904 833.864 875.671 834.606C862.441 835.262 849.111 834.634 835.868 834.64L757.944 834.978C759.064 834.812 760.089 834.566 761.174 834.243C744.703 830.888 726.582 821.94 715.449 809.193Z"/>
	<path fill="#395489" d="M709.218 790.856C709.363 772.993 706.751 755.081 720.72 741.377Q721.625 740.483 722.592 739.656Q723.559 738.829 724.582 738.073Q725.605 737.317 726.68 736.635Q727.754 735.954 728.874 735.351Q729.994 734.747 731.155 734.225Q732.315 733.703 733.51 733.266Q734.704 732.828 735.927 732.476Q737.149 732.124 738.394 731.86C748.42 729.778 770.277 730.876 781.916 730.841C808.93 730.761 836.014 730.275 863.025 730.705C873.422 730.871 883.047 733.244 890.532 740.912C904.938 755.672 901.811 782.187 901.735 801.341C898.735 804.449 895.33 807.128 892.003 809.874C891.338 806.529 891.698 802.543 891.723 799.126C891.821 786.107 894.223 763.233 887.374 752.083C884.123 746.792 879.012 742.494 872.832 741.255C865.658 739.818 856.959 740.604 849.61 740.597L807.193 740.581L765.104 740.493C757.125 740.482 748.622 739.932 740.732 741.017C737.027 741.526 733.51 743.124 730.477 745.281C715.425 755.989 718.947 778.297 719.077 794.369C719.104 797.826 719.375 801.71 718.704 805.11C718.329 807.013 717.398 807.946 715.832 808.954C715.706 809.035 715.577 809.113 715.449 809.193C712.483 807.884 711.364 806.526 709.588 803.804C709.268 799.512 709.308 795.16 709.218 790.856Z"/>
	<path fill="#395489" d="M799.817 618.851Q801.045 618.715 802.279 618.639Q803.513 618.563 804.748 618.548Q805.984 618.533 807.219 618.579Q808.454 618.625 809.686 618.731Q810.917 618.837 812.142 619.004Q813.366 619.17 814.581 619.397Q815.796 619.624 816.998 619.91Q818.201 620.196 819.388 620.54Q820.575 620.885 821.743 621.288Q822.911 621.69 824.059 622.15Q825.206 622.609 826.329 623.124Q827.453 623.64 828.55 624.21Q829.646 624.779 830.714 625.402Q831.781 626.026 832.817 626.7Q833.852 627.375 834.853 628.1Q835.854 628.824 836.818 629.598Q837.783 630.371 838.708 631.19Q839.633 632.01 840.517 632.874Q841.401 633.738 842.241 634.644Q843.081 635.55 843.876 636.497Q844.671 637.443 845.418 638.427Q846.165 639.412 846.863 640.432Q847.561 641.452 848.208 642.505Q848.855 643.558 849.45 644.641Q850.044 645.725 850.585 646.836Q851.126 647.947 851.611 649.084Q852.097 650.221 852.526 651.38Q852.954 652.539 853.326 653.717Q853.698 654.896 854.011 656.092Q854.324 657.287 854.578 658.497Q854.832 659.706 855.026 660.927Q855.221 662.147 855.355 663.376Q855.489 664.605 855.563 665.838Q855.636 667.072 855.649 668.308Q855.662 669.544 855.615 670.779Q855.567 672.014 855.459 673.245Q855.35 674.476 855.182 675.7Q855.013 676.925 854.784 678.139Q854.556 679.354 854.268 680.556Q853.98 681.757 853.633 682.944Q853.286 684.13 852.882 685.298Q852.477 686.466 852.016 687.612Q851.554 688.759 851.037 689.881Q850.52 691.004 849.948 692.099Q849.376 693.195 848.752 694.261Q848.127 695.328 847.45 696.362Q846.774 697.396 846.047 698.396Q845.321 699.396 844.546 700.359Q843.772 701.322 842.951 702.246Q842.13 703.17 841.264 704.052Q840.399 704.934 839.491 705.773Q838.583 706.612 837.635 707.405Q836.688 708.198 835.702 708.944Q834.716 709.689 833.695 710.386Q832.674 711.082 831.62 711.727Q830.566 712.373 829.482 712.965Q828.397 713.558 827.285 714.097Q826.173 714.636 825.035 715.119Q823.898 715.603 822.738 716.03Q821.578 716.457 820.399 716.826Q819.219 717.196 818.023 717.507Q816.827 717.818 815.617 718.07Q814.407 718.322 813.187 718.515Q811.966 718.707 810.737 718.839Q809.511 718.971 808.28 719.042Q807.049 719.114 805.815 719.125Q804.582 719.136 803.35 719.087Q802.118 719.038 800.889 718.928Q799.661 718.818 798.439 718.649Q797.218 718.479 796.006 718.25Q794.794 718.02 793.595 717.732Q792.396 717.443 791.213 717.096Q790.029 716.749 788.864 716.345Q787.699 715.94 786.556 715.479Q785.412 715.018 784.292 714.501Q783.172 713.984 782.079 713.413Q780.986 712.843 779.922 712.219Q778.858 711.595 777.826 710.92Q776.794 710.245 775.797 709.52Q774.799 708.795 773.838 708.021Q772.877 707.249 771.955 706.429Q771.033 705.61 770.153 704.747Q769.272 703.883 768.435 702.978Q767.598 702.072 766.806 701.127Q766.014 700.181 765.269 699.198Q764.525 698.215 763.829 697.197Q763.134 696.178 762.489 695.127Q761.844 694.076 761.252 692.994Q760.66 691.912 760.121 690.803Q759.582 689.693 759.099 688.559Q758.615 687.424 758.188 686.268Q757.76 685.111 757.39 683.934Q757.02 682.758 756.707 681.565Q756.395 680.372 756.142 679.165Q755.889 677.958 755.695 676.74Q755.501 675.522 755.367 674.296Q755.233 673.07 755.16 671.839Q755.086 670.608 755.073 669.375Q755.06 668.142 755.107 666.909Q755.154 665.677 755.261 664.448Q755.369 663.22 755.537 661.998Q755.704 660.776 755.932 659.564Q756.159 658.352 756.446 657.152Q756.732 655.953 757.077 654.769Q757.422 653.585 757.825 652.419Q758.227 651.253 758.686 650.109Q759.146 648.964 759.661 647.843Q760.175 646.723 760.744 645.629Q761.313 644.535 761.936 643.47Q762.558 642.405 763.231 641.372Q763.905 640.339 764.628 639.34Q765.351 638.341 766.122 637.378Q766.894 636.416 767.712 635.493Q768.529 634.57 769.391 633.688Q770.253 632.806 771.157 631.967Q772.061 631.128 773.005 630.335Q773.95 629.541 774.932 628.795Q775.913 628.049 776.931 627.352Q777.948 626.654 778.998 626.008Q780.049 625.361 781.129 624.767Q782.21 624.173 783.318 623.633Q784.427 623.092 785.56 622.606Q786.694 622.121 787.85 621.692Q789.006 621.262 790.182 620.89Q791.358 620.518 792.55 620.203Q793.743 619.889 794.949 619.634Q796.156 619.379 797.374 619.183Q798.591 618.987 799.817 618.851Z"/>
	<path fill="#FEFEFE" d="M803.395 627.669Q804.404 627.621 805.415 627.623Q806.425 627.625 807.434 627.677Q808.443 627.729 809.448 627.831Q810.454 627.932 811.453 628.083Q812.452 628.234 813.442 628.434Q814.433 628.634 815.412 628.882Q816.391 629.131 817.357 629.427Q818.323 629.723 819.273 630.067Q820.224 630.411 821.156 630.801Q822.088 631.191 822.999 631.626Q823.911 632.062 824.8 632.542Q825.689 633.021 826.554 633.544Q827.418 634.068 828.256 634.633Q829.094 635.198 829.902 635.803Q830.711 636.409 831.489 637.054Q832.267 637.698 833.012 638.38Q833.758 639.063 834.468 639.781Q835.179 640.499 835.854 641.251Q836.528 642.004 837.165 642.788Q837.801 643.573 838.398 644.388Q838.996 645.203 839.552 646.046Q840.108 646.89 840.622 647.76Q841.136 648.629 841.607 649.523Q842.078 650.418 842.504 651.334Q842.93 652.25 843.31 653.186Q843.69 654.122 844.024 655.076Q844.358 656.029 844.644 656.998Q844.931 657.967 845.169 658.949Q845.407 659.931 845.597 660.923Q845.787 661.916 845.927 662.916Q846.068 663.917 846.159 664.923Q846.25 665.93 846.291 666.939Q846.332 667.949 846.324 668.959Q846.316 669.969 846.257 670.978Q846.199 671.987 846.091 672.992Q845.984 673.996 845.826 674.994Q845.669 675.992 845.463 676.982Q845.257 677.971 845.002 678.948Q844.748 679.926 844.445 680.89Q844.143 681.854 843.793 682.802Q843.443 683.75 843.048 684.68Q842.652 685.61 842.21 686.519Q841.769 687.428 841.284 688.314Q840.798 689.2 840.27 690.061Q839.741 690.922 839.171 691.756Q838.601 692.59 837.99 693.395Q837.379 694.2 836.729 694.974Q836.08 695.748 835.393 696.489Q834.706 697.23 833.983 697.936Q833.261 698.642 832.504 699.312Q831.748 699.982 830.959 700.613Q830.17 701.245 829.351 701.837Q828.533 702.429 827.686 702.98Q826.839 703.531 825.966 704.04Q825.093 704.548 824.196 705.013Q823.298 705.478 822.38 705.898Q821.461 706.319 820.522 706.693Q819.584 707.068 818.628 707.395Q817.672 707.723 816.701 708.003Q815.731 708.283 814.747 708.516Q813.764 708.748 812.77 708.931Q811.776 709.114 810.775 709.249Q809.774 709.383 808.767 709.467Q807.76 709.552 806.75 709.587Q805.748 709.622 804.746 709.607Q803.744 709.593 802.744 709.53Q801.743 709.467 800.747 709.354Q799.751 709.242 798.762 709.082Q797.772 708.921 796.792 708.712Q795.812 708.504 794.843 708.247Q793.874 707.991 792.919 707.687Q791.963 707.384 791.024 707.034Q790.085 706.684 789.164 706.289Q788.243 705.894 787.342 705.454Q786.441 705.014 785.563 704.531Q784.685 704.047 783.832 703.522Q782.978 702.996 782.152 702.429Q781.325 701.863 780.527 701.256Q779.729 700.65 778.962 700.005Q778.194 699.36 777.459 698.679Q776.724 697.997 776.023 697.281Q775.323 696.564 774.658 695.814Q773.993 695.064 773.365 694.283Q772.738 693.501 772.149 692.69Q771.56 691.879 771.012 691.039Q770.464 690.2 769.957 689.336Q769.451 688.471 768.987 687.582Q768.524 686.693 768.104 685.783Q767.684 684.873 767.309 683.943Q766.935 683.014 766.606 682.067Q766.277 681.12 765.995 680.158Q765.713 679.197 765.478 678.222Q765.243 677.248 765.056 676.263Q764.869 675.278 764.73 674.286Q764.592 673.293 764.502 672.295Q764.412 671.296 764.371 670.295Q764.33 669.294 764.338 668.291Q764.346 667.289 764.403 666.288Q764.46 665.288 764.566 664.291Q764.671 663.294 764.826 662.304Q764.98 661.313 765.183 660.332Q765.385 659.35 765.636 658.38Q765.886 657.409 766.183 656.452Q766.481 655.495 766.825 654.553Q767.169 653.612 767.558 652.688Q767.948 651.765 768.382 650.861Q768.816 649.958 769.293 649.077Q769.771 648.196 770.292 647.339Q770.812 646.482 771.373 645.652Q771.935 644.822 772.536 644.02Q773.138 643.218 773.778 642.447Q774.417 641.675 775.094 640.936Q775.771 640.197 776.483 639.491Q777.195 638.786 777.941 638.116Q778.687 637.447 779.464 636.814Q780.242 636.182 781.05 635.588Q781.857 634.994 782.693 634.441Q783.528 633.887 784.39 633.375Q785.252 632.863 786.137 632.394Q787.023 631.925 787.931 631.499Q788.838 631.074 789.765 630.693Q790.693 630.313 791.637 629.978Q792.582 629.643 793.542 629.355Q794.502 629.067 795.475 628.826Q796.448 628.585 797.432 628.392Q798.415 628.198 799.407 628.054Q800.399 627.909 801.396 627.812Q802.394 627.716 803.395 627.669Z"/>
	<path fill="#FEFEFE" d="M460.379 666.858C492.609 667.148 524.864 666.603 557.088 667.076L556.883 776.375L424.58 776.87L371.826 777.05C363.939 777.145 355.6 776.811 347.78 777.547L347.947 775.766C352.629 773.078 362.867 762.071 367.61 757.628C388.624 737.942 409.062 717.453 429.495 697.157C439.683 687.038 449.644 676.385 460.379 666.858Z"/>
	<path fill="#FEFEFE" d="M489.142 363.868C492.912 362.426 525.607 363.5 531.723 363.521C531.246 406.548 531.805 449.631 531.747 492.666C531.726 508.344 532.522 524.252 531.834 539.906L517.69 554.034C505.354 554.027 435.132 555.103 429.094 552.923C432.316 546.994 436.343 541.393 439.768 535.56C456.091 507.758 473.508 479.815 487.261 450.645C501.707 420.004 500.473 395.454 489.142 363.868Z"/>
	<path fill="#FEFEFE" d="M635.037 594.08C664.208 593.694 693.422 594.016 722.598 593.986C737.504 593.971 752.538 593.301 767.418 593.571C768.234 593.586 768.822 593.822 769.525 594.208Q768.015 594.645 766.516 595.118Q765.016 595.591 763.529 596.1Q762.042 596.609 760.567 597.154Q759.092 597.699 757.631 598.279Q756.17 598.859 754.723 599.473Q753.276 600.088 751.844 600.738Q750.412 601.387 748.997 602.071Q747.581 602.754 746.182 603.472Q744.783 604.189 743.402 604.94Q742.021 605.691 740.658 606.474Q739.295 607.258 737.951 608.074Q736.608 608.891 735.284 609.739Q733.961 610.587 732.658 611.467Q731.355 612.347 730.073 613.258Q728.792 614.168 727.533 615.11Q726.274 616.051 725.038 617.023Q723.802 617.994 722.589 618.995Q721.377 619.995 720.189 621.025Q719.001 622.055 717.838 623.112Q716.675 624.17 715.537 625.256Q714.4 626.341 713.289 627.453Q712.178 628.566 711.095 629.705Q710.011 630.844 708.955 632.008Q707.898 633.172 706.871 634.362Q705.843 635.552 704.844 636.766Q703.845 637.979 702.875 639.217Q701.905 640.454 700.966 641.715Q700.026 642.975 699.117 644.258Q698.208 645.541 697.33 646.845Q696.452 648.149 695.606 649.474Q694.759 650.798 693.945 652.143Q693.131 653.488 692.349 654.852C682.466 672.398 676.731 693.439 675.851 713.548C670.924 709.146 666.371 704.082 661.704 699.394L635.472 673.236C634.002 647.011 634.992 620.365 635.037 594.08Z"/>
	<path fill="#FEFEFE" d="M635.984 726.216C646.486 736.738 657.21 747.044 667.817 757.461C673.672 763.211 679.564 769.837 685.953 774.951C686.943 775.743 687.663 775.983 688.903 776.162L689.093 776.645C688.846 776.82 688.633 777.056 688.352 777.171C687.733 777.424 641.722 776.878 636.023 776.903L635.984 726.216Z"/>
	<path fill="#FEFEFE" d="M636.206 491.983L800.567 491.963C800.564 522.501 801.139 553.093 800.794 583.623L704.987 583.855Q669.994 583.663 635.001 583.866C634.871 553.782 633.793 523.452 634.725 493.401L636.206 491.983Z"/>
	<path fill="#FEFEFE" d="M764.476 363.239C773.605 361.891 790.606 363.003 800.544 363.102Q800.979 422.33 800.522 481.557Q723.081 481.177 645.643 482.028C651.336 475.601 657.676 469.777 663.816 463.787L685.754 442.033L764.476 363.239Z"/>
	<path fill="#FEFEFE" d="M542.067 363.487C569.359 362.904 596.78 363.51 624.083 363.6C624.612 374.884 624.287 386.363 624.37 397.667C624.49 413.996 624.847 430.436 624.291 446.75C619.523 450.72 615.222 455.47 610.862 459.885Q600.093 470.926 589.06 481.704C573.418 481.24 557.713 481.506 542.062 481.506L542.067 363.487Z"/>
	<path fill="#FEFEFE" d="M567.087 666.977C570.167 666.941 573.246 667.077 576.324 667.181C585.249 674.141 593.299 683.178 601.214 691.244C609.308 699.494 617.548 707.522 625.502 715.919Q625.648 746.178 625.272 776.435L567.212 776.331C567.722 739.902 566.917 703.419 567.087 666.977Z"/>
	<path fill="#FEFEFE" d="M544.635 583.684C550.656 576.97 557.517 570.807 563.818 564.321Q593.879 533.462 624.748 503.41C625.301 530.109 624.915 556.895 624.73 583.6C598.061 583.79 571.284 582.973 544.635 583.684Z"/>
	<path fill="#FEFEFE" d="M634.11 363.696C658.959 363.162 683.905 363.476 708.763 363.519C682.922 386.668 659.072 411.966 634.492 436.418C633.756 427.635 634.363 418.536 634.378 409.706Q634.419 386.7 634.11 363.696Z"/>
	<path fill="#FEFEFE" d="M556.555 594.139C579.307 593.656 602.159 594.064 624.92 594.091L624.963 662.738C620.478 659.638 608.295 646.102 603.258 641.021C587.737 625.365 571.73 610.128 556.555 594.139Z"/>
	<path fill="#FEFEFE" d="M518.567 608.952Q530.93 620.658 543.099 632.565C547.901 637.236 552.974 641.826 557.398 646.862C557.391 650.115 557.456 653.389 557.299 656.637C528.337 656.964 499.368 656.399 470.401 656.848C486.941 641.579 502.843 625.076 518.567 608.952Z"/>
	<path fill="#FEFEFE" d="M542.137 491.99C554.441 491.978 566.859 491.655 579.149 492.153C566.969 504.259 553.738 516.17 542.51 529.138C541.851 516.847 542.177 504.306 542.137 491.99Z"/>
	<path fill="#E2E5EF" d="M416.337 291.405C449.254 276.392 466.834 252.863 494.305 230.941Q497.425 228.426 500.624 226.014Q503.824 223.602 507.101 221.296Q510.378 218.99 513.729 216.791Q517.079 214.593 520.499 212.505Q523.919 210.418 527.406 208.443Q530.893 206.467 534.442 204.607Q537.991 202.747 541.599 201.003Q545.207 199.26 548.87 197.635Q552.532 196.01 556.246 194.505Q559.96 193.001 563.721 191.618Q567.482 190.235 571.286 188.976Q575.09 187.717 578.933 186.582Q582.777 185.448 586.655 184.439Q590.533 183.43 594.442 182.549Q598.351 181.667 602.286 180.914Q606.222 180.16 610.18 179.535Q614.138 178.91 618.115 178.415Q622.091 177.92 626.082 177.554Q630.072 177.189 634.072 176.954Q638.072 176.718 642.078 176.614Q646.084 176.509 650.091 176.536Q654.098 176.562 658.102 176.719Q662.106 176.876 666.103 177.163Q670.1 177.45 674.085 177.868Q678.07 178.286 682.04 178.833Q686.009 179.38 689.959 180.057Q693.909 180.733 697.834 181.538Q701.759 182.343 705.656 183.276Q709.554 184.209 713.418 185.268Q717.283 186.327 721.111 187.512Q724.939 188.696 728.726 190.005Q732.513 191.314 736.256 192.746C792.181 213.695 840.538 259.688 864.963 313.994C872.307 330.323 878.92 346.914 882.961 364.394C894.453 414.107 886.047 468.587 868.142 515.717C865.542 522.561 859.904 539.289 855.382 544.319C854.93 530.141 855.259 515.854 855.241 501.665L855.265 404.645L855.057 374.039C854.984 365.493 855.288 356.866 853.707 348.429C851.932 338.954 847.731 329.816 841.152 322.706C834.286 315.288 823.806 309.167 813.775 307.505C803.014 305.722 790.805 306.691 779.889 306.662L716 306.568L541.192 306.596C508.747 306.624 476.038 307.55 443.633 306.32C435.468 299.799 425.943 295.352 416.337 291.405Z"/>
	<path fill="#FEFEFE" d="M460.074 319.523L702.899 319.543L773.345 319.536C783.656 319.536 797.869 318.561 807.719 319.855C815.995 320.943 824.434 324.98 830.382 330.85C835.265 335.669 839.085 342.312 840.531 349.023C843.338 362.051 841.968 385.77 841.968 400.162L841.971 489.62Q841.501 542.254 842.095 594.885C831.651 592.461 821.803 590.161 810.997 590.008C810.585 530.546 811.962 471.074 811.203 411.608C811.057 400.119 811.203 388.616 811.217 377.126C811.225 371.057 811.64 364.612 810.876 358.602C810.553 356.054 808.372 354.549 806.509 353.076C776.235 351.095 742.624 352.92 712.05 352.746L484.326 352.935C477.377 340.616 469.6 329.978 460.074 319.523Z"/>
	<path fill="#FEFEFE" d="M345.004 594.815Q352.287 605.319 359.184 616.08C361.695 619.942 364.063 624.194 367.063 627.69C368.57 629.446 370.607 631.464 372.988 631.899C375.475 632.353 377.895 630.827 379.678 629.269C385.835 623.888 397.668 602.803 402.981 594.583C409.389 594.923 415.875 594.581 422.296 594.549C440.593 594.459 459.178 593.879 477.447 594.797C469.691 601.086 462.56 608.575 455.507 615.633Q442.738 628.194 429.784 640.564C424.148 646.047 418.727 651.883 412.753 656.992L343.392 656.819L320.794 656.841C317.731 656.847 314.45 656.446 311.419 656.739C309.565 656.917 307.621 657.559 306.235 658.843C305.247 659.759 304.575 660.987 304.6 662.364C304.622 663.616 305.262 664.72 306.249 665.469C307.336 666.294 308.561 666.64 309.899 666.757C319.535 667.607 329.762 666.99 339.46 666.992L402.94 666.939C395.305 674.409 387.536 681.757 379.966 689.29C372.503 696.714 345.313 725.832 337.9 729.16C337.041 728.241 336.211 727.303 334.978 726.905C331.139 725.666 324.243 729.34 320.688 730.792C299.129 739.595 283.241 757.954 274.39 779.096C274.67 771.912 275.622 764.778 275.912 757.595Q276.078 754.04 276.055 750.481Q276.031 746.923 275.818 743.37Q275.605 739.818 275.202 736.282Q274.8 732.746 274.209 729.237Q273.618 725.727 272.841 722.254Q272.064 718.781 271.103 715.355Q270.142 711.928 268.999 708.558Q267.857 705.188 266.536 701.883Q264.249 696.059 261.303 690.538C259.082 686.359 255.681 682.172 254.804 677.452C253.677 671.392 254.495 652.036 254.45 644.774C254.435 642.372 254.825 639.12 254.359 636.803C254.304 636.526 254.158 636.275 254.057 636.011C254.368 635.034 254.341 635.516 254.186 634.571C256.561 631.375 258.758 627.704 258.729 623.591C258.69 617.954 254.365 613.833 250.731 610.06C251.183 604.898 251.051 599.698 251.032 594.52L308.083 594.474C320.379 594.467 332.722 594.191 345.004 594.815Z"/>
	<path fill="#FEFEFE" d="M345.862 786.482C352.99 787.979 364.729 786.951 372.394 786.93L428.668 786.811L695.217 787.106C696.962 789.697 698.97 793.295 702.318 793.891C704.277 794.239 705.787 793.529 707.324 792.381C707.975 791.895 708.594 791.374 709.218 790.856C709.308 795.16 709.268 799.512 709.588 803.804C711.364 806.526 712.483 807.884 715.449 809.193C726.582 821.94 744.703 830.888 761.174 834.243C760.089 834.566 759.064 834.812 757.944 834.978C736.092 834.298 714.162 834.568 692.3 834.626L603.919 835.001L407.247 834.852C376.391 835.366 345.417 835.143 314.558 834.822C326.863 819.271 340.83 806.597 345.862 786.482Z"/>
	<path fill="#F0B872" d="M455.89 834.647C455.85 826.12 455.273 817.624 461.739 810.965Q462.353 810.344 463.011 809.769Q463.668 809.195 464.366 808.669Q465.063 808.143 465.797 807.67Q466.53 807.196 467.296 806.776Q468.062 806.357 468.856 805.994Q469.651 805.631 470.469 805.326Q471.287 805.021 472.126 804.777Q472.964 804.532 473.818 804.349C482.28 802.531 492.699 803.606 501.343 803.653L543.289 803.788C552.602 803.845 576.429 802.971 584.003 804.794C588.204 805.805 593.491 808.622 596.474 811.719C602.204 817.668 604.245 826.412 603.949 834.438C603.942 834.626 603.929 834.813 603.919 835.001L407.247 834.852C423.369 833.986 439.747 834.562 455.89 834.647Z"/>
	<path fill="#E2E5EF" d="M196.057 538.964L196.029 556.225C192.507 556.719 188.79 557.333 185.896 559.56C180.181 563.958 175.228 570.643 170.234 575.951Q158.115 588.782 146.233 601.832C141.854 606.571 136.934 611.278 132.994 616.386C131.199 618.714 130.955 622.343 131.487 625.134C131.996 627.796 132.98 630.038 134.452 632.283C134.587 632.488 134.714 632.699 134.845 632.908C134.788 688.397 135.728 743.934 135.042 799.416C134.079 798.661 133.141 797.873 132.315 796.966C127.387 791.557 124.209 784.539 120.762 778.152C99.8569 739.413 84.2698 683.853 86.1901 639.516C87.3806 612.03 94.5142 582.974 115.585 563.802C137.224 544.115 167.489 537.519 196.057 538.964Z"/>
	<path fill="#E2E5EF" d="M240.431 598.897C242.025 595.767 241.273 568.554 241.301 563.33L241.627 428.861L241.562 392.385C241.541 385.807 241.221 379.079 241.691 372.526C241.943 369.002 242.574 364.472 244.67 361.572C248.488 356.288 256.502 355.206 262.483 354.123C260.4 358.853 258.544 363.548 256.87 368.443C255.268 373.933 253.845 379.413 252.788 385.039C251.857 393.458 251.004 401.809 251.339 410.297C251.544 415.5 252.599 421.082 252.492 426.202C257.488 447.547 280.142 485.492 291.36 505.211C300.514 521.302 309.445 537.744 319.501 553.291C328.214 566.85 336.994 580.843 345.004 594.815C332.722 594.191 320.379 594.467 308.083 594.474L251.032 594.52C251.051 599.698 251.183 604.898 250.731 610.06C247.231 606.398 243.63 602.831 240.431 598.897Z"/>
	<path fill="#FEFEFE" d="M250.847 554.155L251.417 472.726C251.427 458.569 250.665 444.354 251.488 430.211C251.581 428.604 251.652 427.599 252.492 426.202C257.488 447.547 280.142 485.492 291.36 505.211C300.514 521.302 309.445 537.744 319.501 553.291C296.62 554.515 273.749 554.048 250.847 554.155Z"/>
	<path fill="#FEFEFE" d="M252.788 385.039L252.043 384.931C250.776 382.761 251.083 375.335 251.328 372.761C251.516 370.792 251.766 369.606 253.341 368.357C254.697 368.165 255.536 368.007 256.87 368.443C255.268 373.933 253.845 379.413 252.788 385.039Z"/>
	<path fill="#FEFEFE" d="M209.958 564.429C209.256 554.307 209.601 543.938 209.615 533.788L209.809 479.249C209.902 440.916 208.893 402.506 209.601 364.185C209.844 351.063 213.017 339.772 222.767 330.485C234.686 319.132 248.107 319.357 263.468 319.598L287.185 319.995C276.58 330.126 268.981 341.036 262.483 354.123C256.502 355.206 248.488 356.288 244.67 361.572C242.574 364.472 241.943 369.002 241.691 372.526C241.221 379.079 241.541 385.807 241.562 392.385L241.627 428.861L241.301 563.33C241.273 568.554 242.025 595.767 240.431 598.897C230.321 587.673 218.686 576.741 209.958 564.429Z"/>
	<path fill="#F0B872" d="M370.252 294.218C392.706 292.882 415.622 299.84 434.398 311.923C461.04 329.067 479.1 356.609 485.755 387.491C488.273 399.175 489.471 413.113 486.442 424.807C481.92 442.261 471.322 459.356 462.757 475.122C436.298 523.824 406.673 570.683 376.659 617.245C375.853 618.317 375.301 619.023 374.147 619.755C371.527 616.991 369.638 613.472 367.532 610.3C362.04 602.025 356.731 593.693 351.416 585.305Q333.115 556.64 315.698 527.429C307.073 512.655 299.011 497.597 290.726 482.639C282.233 467.306 271.267 449.06 264.883 432.886C262.236 426.18 261.569 418.88 261.225 411.735Q261.163 410.342 261.135 408.948Q261.106 407.554 261.113 406.159Q261.119 404.765 261.16 403.371Q261.2 401.977 261.275 400.585Q261.35 399.193 261.46 397.803Q261.569 396.412 261.712 395.025Q261.856 393.638 262.034 392.255Q262.211 390.872 262.423 389.494Q262.635 388.116 262.88 386.743Q263.126 385.371 263.405 384.005Q263.684 382.638 263.997 381.28Q264.31 379.921 264.656 378.57Q265.003 377.219 265.382 375.878Q265.762 374.536 266.174 373.204Q266.587 371.872 267.032 370.55Q267.477 369.229 267.954 367.919Q268.432 366.609 268.942 365.311Q269.451 364.013 269.993 362.728Q270.534 361.443 271.107 360.172Q271.68 358.901 272.285 357.644Q272.889 356.387 273.524 355.146Q274.159 353.905 274.824 352.679Q275.489 351.454 276.185 350.245Q276.88 349.036 277.605 347.845Q278.33 346.654 279.084 345.481Q279.838 344.308 280.621 343.154Q281.404 342 282.215 340.866Q283.025 339.732 283.864 338.618Q284.703 337.504 285.569 336.411Q286.434 335.318 287.327 334.246Q288.219 333.175 289.138 332.126Q290.057 331.077 291.001 330.051C311.612 307.548 340.051 295.623 370.252 294.218Z"/>
	<path fill="#2D3151" d="M372.844 347.576Q374.289 347.547 375.734 347.588Q377.179 347.629 378.62 347.742Q380.061 347.854 381.495 348.037Q382.929 348.22 384.353 348.473Q385.776 348.726 387.185 349.048Q388.594 349.371 389.986 349.762Q391.377 350.153 392.748 350.612Q394.119 351.072 395.465 351.597Q396.812 352.123 398.131 352.714Q399.45 353.306 400.738 353.961Q402.027 354.616 403.282 355.334Q404.536 356.051 405.755 356.83Q406.973 357.608 408.151 358.445Q409.329 359.282 410.465 360.176Q411.601 361.07 412.692 362.019Q413.783 362.968 414.826 363.969Q415.868 364.97 416.861 366.021Q417.853 367.072 418.793 368.17Q419.733 369.269 420.617 370.412Q421.502 371.555 422.33 372.74Q423.157 373.926 423.926 375.15Q424.694 376.374 425.401 377.635Q426.109 378.896 426.753 380.19Q427.398 381.483 427.978 382.807Q428.559 384.131 429.073 385.482Q429.588 386.833 430.036 388.207Q430.484 389.582 430.864 390.976Q431.244 392.371 431.555 393.783Q431.866 395.194 432.107 396.62Q432.348 398.045 432.519 399.48Q432.69 400.916 432.791 402.358Q432.891 403.8 432.921 405.245Q432.951 406.69 432.909 408.135Q432.868 409.58 432.756 411.021Q432.644 412.463 432.461 413.897Q432.278 415.331 432.025 416.754Q431.772 418.177 431.45 419.586Q431.128 420.995 430.736 422.387Q430.345 423.779 429.886 425.149Q429.427 426.52 428.902 427.867Q428.376 429.213 427.785 430.533Q427.194 431.852 426.539 433.14Q425.883 434.429 425.166 435.684Q424.448 436.939 423.67 438.157Q422.892 439.375 422.055 440.553Q421.218 441.732 420.324 442.868Q419.43 444.004 418.481 445.095Q417.532 446.185 416.531 447.228Q415.531 448.271 414.48 449.264Q413.429 450.256 412.33 451.196Q411.232 452.136 410.089 453.021Q408.946 453.906 407.76 454.733Q406.575 455.561 405.351 456.329Q404.126 457.098 402.866 457.805Q401.605 458.513 400.311 459.157Q399.018 459.802 397.694 460.383Q396.37 460.963 395.019 461.478Q393.668 461.993 392.294 462.441Q390.92 462.889 389.525 463.269Q388.13 463.649 386.718 463.96Q385.307 464.271 383.881 464.512Q382.456 464.754 381.021 464.925Q379.585 465.096 378.143 465.197Q376.701 465.297 375.256 465.327Q373.811 465.357 372.366 465.315Q370.92 465.274 369.479 465.162Q368.038 465.05 366.604 464.867Q365.17 464.685 363.746 464.432Q362.323 464.179 360.914 463.856Q359.504 463.534 358.113 463.143Q356.721 462.752 355.35 462.293Q353.979 461.834 352.632 461.308Q351.286 460.782 349.966 460.191Q348.647 459.6 347.358 458.945Q346.07 458.29 344.815 457.572Q343.56 456.854 342.341 456.076Q341.123 455.298 339.945 454.46Q338.766 453.623 337.63 452.729Q336.494 451.835 335.403 450.887Q334.312 449.938 333.269 448.937Q332.226 447.936 331.233 446.885Q330.241 445.834 329.301 444.735Q328.361 443.637 327.476 442.493Q326.591 441.35 325.764 440.165Q324.936 438.979 324.168 437.755Q323.399 436.53 322.692 435.27Q321.984 434.009 321.339 432.715Q320.695 431.421 320.114 430.097Q319.534 428.773 319.019 427.422Q318.504 426.071 318.056 424.697Q317.608 423.322 317.228 421.927Q316.849 420.532 316.538 419.12Q316.227 417.709 315.985 416.283Q315.744 414.858 315.573 413.422Q315.402 411.987 315.301 410.545Q315.201 409.102 315.171 407.657Q315.141 406.212 315.183 404.767Q315.224 403.322 315.336 401.88Q315.449 400.439 315.631 399.005Q315.814 397.571 316.067 396.147Q316.32 394.724 316.643 393.315Q316.965 391.906 317.356 390.514Q317.748 389.122 318.207 387.751Q318.666 386.38 319.191 385.034Q319.717 383.687 320.308 382.368Q320.9 381.049 321.555 379.76Q322.21 378.471 322.928 377.216Q323.646 375.962 324.424 374.743Q325.202 373.525 326.04 372.347Q326.877 371.168 327.771 370.032Q328.665 368.896 329.614 367.805Q330.563 366.714 331.564 365.671Q332.565 364.629 333.616 363.636Q334.667 362.643 335.766 361.704Q336.864 360.764 338.007 359.879Q339.151 358.994 340.336 358.167Q341.521 357.339 342.746 356.571Q343.971 355.803 345.231 355.095Q346.492 354.388 347.786 353.743Q349.08 353.098 350.404 352.518Q351.728 351.938 353.079 351.423Q354.43 350.908 355.805 350.46Q357.179 350.013 358.574 349.633Q359.969 349.253 361.381 348.942Q362.792 348.631 364.218 348.39Q365.643 348.148 367.079 347.977Q368.514 347.806 369.956 347.706Q371.399 347.606 372.844 347.576Z"/>
	<path fill="#FEFEFE" d="M370.825 357.749Q372.021 357.671 373.22 357.652Q374.418 357.633 375.616 357.672Q376.814 357.712 378.008 357.811Q379.203 357.91 380.391 358.067Q381.58 358.224 382.759 358.44Q383.938 358.655 385.105 358.929Q386.272 359.202 387.424 359.533Q388.576 359.863 389.711 360.25Q390.845 360.636 391.959 361.078Q393.073 361.521 394.164 362.017Q395.255 362.513 396.321 363.063Q397.386 363.612 398.423 364.213Q399.46 364.814 400.466 365.466Q401.472 366.117 402.445 366.818Q403.418 367.518 404.355 368.265Q405.293 369.012 406.192 369.804Q407.091 370.597 407.951 371.432Q408.81 372.268 409.627 373.145Q410.444 374.022 411.217 374.938Q411.99 375.854 412.717 376.807Q413.444 377.76 414.123 378.748Q414.802 379.735 415.432 380.755Q416.062 381.775 416.641 382.824Q417.22 383.874 417.746 384.951Q418.273 386.028 418.746 387.129Q419.219 388.23 419.637 389.354Q420.055 390.477 420.418 391.619Q420.78 392.762 421.086 393.921Q421.391 395.08 421.64 396.253Q421.888 397.425 422.079 398.609Q422.269 399.792 422.401 400.983Q422.533 402.175 422.606 403.371Q422.679 404.567 422.693 405.766Q422.708 406.964 422.663 408.162Q422.618 409.36 422.515 410.554Q422.411 411.748 422.249 412.936Q422.086 414.123 421.866 415.302Q421.645 416.48 421.367 417.646Q421.089 418.812 420.754 419.962Q420.419 421.113 420.027 422.246Q419.636 423.379 419.189 424.491Q418.743 425.604 418.242 426.692Q417.741 427.781 417.187 428.844Q416.633 429.907 416.028 430.942Q415.422 431.976 414.767 432.98Q414.111 433.983 413.407 434.953Q412.703 435.923 411.952 436.857Q411.201 437.792 410.405 438.688Q409.609 439.584 408.77 440.439Q407.93 441.295 407.05 442.109Q406.17 442.922 405.25 443.691Q404.331 444.461 403.375 445.184Q402.419 445.907 401.429 446.582Q400.439 447.257 399.416 447.883Q398.394 448.508 397.342 449.083Q396.29 449.657 395.211 450.179Q394.132 450.702 393.029 451.17Q391.925 451.638 390.8 452.052Q389.675 452.465 388.531 452.823Q387.387 453.181 386.227 453.482Q385.067 453.783 383.893 454.026Q382.72 454.27 381.536 454.455Q380.351 454.641 379.16 454.768Q377.968 454.895 376.771 454.963Q375.581 455.031 374.388 455.04Q373.196 455.05 372.005 455.001Q370.813 454.952 369.626 454.845Q368.438 454.738 367.258 454.573Q366.077 454.408 364.905 454.185Q363.734 453.963 362.575 453.683Q361.416 453.403 360.272 453.067Q359.128 452.731 358.002 452.339Q356.876 451.948 355.77 451.502Q354.664 451.055 353.582 450.555Q352.5 450.055 351.443 449.503Q350.386 448.951 349.358 448.348Q348.329 447.744 347.332 447.091Q346.334 446.438 345.37 445.737Q344.405 445.036 343.476 444.289Q342.547 443.542 341.656 442.75Q340.764 441.958 339.913 441.123Q339.061 440.289 338.251 439.414Q337.442 438.538 336.676 437.625Q335.91 436.711 335.19 435.761Q334.47 434.81 333.797 433.826Q333.124 432.842 332.5 431.826Q331.876 430.81 331.303 429.764Q330.729 428.719 330.208 427.647Q329.686 426.574 329.218 425.478Q328.749 424.382 328.335 423.264Q327.921 422.146 327.562 421.009Q327.203 419.872 326.9 418.718Q326.597 417.565 326.35 416.399Q326.104 415.232 325.916 414.055Q325.727 412.877 325.596 411.692Q325.465 410.507 325.392 409.317Q325.319 408.127 325.305 406.935Q325.29 405.742 325.334 404.551Q325.378 403.359 325.48 402.171Q325.582 400.983 325.742 399.802Q325.903 398.62 326.12 397.448Q326.338 396.276 326.613 395.116Q326.888 393.955 327.219 392.81Q327.551 391.665 327.938 390.537Q328.325 389.409 328.766 388.302Q329.208 387.194 329.704 386.11Q330.199 385.025 330.747 383.966Q331.295 382.907 331.894 381.876Q332.493 380.845 333.142 379.845Q333.79 378.845 334.487 377.877Q335.184 376.91 335.928 375.978Q336.671 375.046 337.46 374.151Q338.248 373.256 339.079 372.401Q339.91 371.546 340.782 370.733Q341.654 369.92 342.564 369.15Q343.475 368.38 344.422 367.656Q345.369 366.932 346.351 366.255Q347.332 365.578 348.346 364.95Q349.359 364.322 350.402 363.744Q351.445 363.166 352.515 362.64Q353.585 362.114 354.68 361.641Q355.774 361.168 356.891 360.75Q358.007 360.331 359.143 359.967Q360.278 359.603 361.43 359.295Q362.582 358.988 363.747 358.737Q364.913 358.486 366.09 358.292Q367.266 358.098 368.451 357.963Q369.635 357.827 370.825 357.749Z"/>
	<path fill="#F0B872" d="M140.17 636.657L206.474 636.713C220.537 636.806 235.382 637.958 249.319 636.366L249.001 834.424C242.554 835.607 224.57 834.694 217.098 834.69L139.989 834.596L140.17 636.657Z"/>
	<path fill="#F0B872" d="M194.571 561.056C197.6 561.09 199.427 561.737 201.8 563.663C207.121 567.981 211.197 574.356 215.839 579.416C223.154 587.392 230.33 595.511 237.702 603.432C242.053 608.107 247.038 612.695 250.943 617.726C252.259 619.422 253.519 621.173 253.675 623.386C253.832 625.625 252.899 627.735 251.325 629.301Q250.834 629.794 250.272 630.206Q249.71 630.618 249.091 630.937Q248.472 631.257 247.812 631.477Q247.151 631.698 246.464 631.813C240.771 632.755 234.321 632.168 228.545 632.138L195.75 631.938L141.424 631.518C139.325 629.804 137.222 628.064 136.439 625.356C135.914 623.539 135.927 620.917 137.006 619.308C140.127 614.653 145.395 610.222 149.223 606.003Q161.999 591.914 175.016 578.046C179.297 573.393 183.619 567.738 188.422 563.683C190.297 562.1 192.219 561.602 194.571 561.056Z"/>
	<path fill="#FEFEFE" d="M316.145 767.252C316.834 767.776 317.456 768.417 318.092 769.005C318.292 769.747 318.596 770.264 318.34 771.027C317.146 774.584 311.758 780.362 309.439 783.836C299.121 799.288 294.295 817.245 290.585 835.207C289.586 834.92 288.608 834.597 287.622 834.269C287.387 833.393 287.34 833.516 287.363 832.759C287.48 828.734 288.691 824.401 289.544 820.451C293.713 801.165 301.405 781.023 316.145 767.252Z"/>
</svg>
